<?xml version="1.0" standalone="no"?>
<!DOCTYPE svg PUBLIC "-//W3C//DTD SVG 20010904//EN"
 "http://www.w3.org/TR/2001/REC-SVG-20010904/DTD/svg10.dtd">
<svg version="1.0" xmlns="http://www.w3.org/2000/svg"
 width="1024.000000pt" height="1024.000000pt" viewBox="0 0 1024.000000 1024.000000"
 preserveAspectRatio="xMidYMid meet">
<metadata>
Created by potrace 1.14, written by Peter Selinger 2001-2017
</metadata>
<g transform="translate(0.000000,1024.000000) scale(0.100000,-0.100000)"
fill="#000000" stroke="none">
<path d="M4820 10133 c-19 -2 -107 -10 -195 -18 -88 -8 -169 -17 -181 -19 -18
-4 -85 -13 -144 -21 -14 -2 -80 -13 -125 -21 -11 -2 -42 -8 -70 -14 -27 -6
-60 -12 -73 -15 -13 -2 -31 -6 -40 -9 -9 -3 -30 -8 -47 -10 -16 -3 -57 -13
-90 -22 -33 -8 -68 -17 -78 -19 -10 -2 -57 -16 -105 -30 -47 -15 -93 -28 -102
-30 -31 -7 -283 -97 -387 -139 -160 -64 -221 -92 -403 -183 -121 -60 -167 -79
-173 -70 -6 8 -7 6 -3 -6 4 -11 -1 -20 -12 -24 -73 -28 -499 -305 -627 -410
-5 -5 -30 -24 -55 -43 -25 -19 -47 -37 -50 -40 -3 -3 -17 -15 -31 -25 -154
-118 -455 -413 -619 -605 -30 -36 -60 -71 -68 -78 -7 -8 -25 -30 -40 -50 -15
-21 -33 -43 -39 -50 -36 -38 -313 -434 -313 -447 0 -3 -16 -29 -35 -59 -86
-135 -215 -382 -297 -571 -119 -273 -249 -666 -293 -886 -2 -9 -12 -59 -24
-110 -11 -52 -25 -123 -30 -159 -6 -36 -13 -76 -16 -90 -2 -14 -6 -45 -9 -70
-3 -25 -8 -67 -11 -95 -24 -206 -30 -316 -30 -585 1 -235 9 -425 20 -485 2
-11 7 -47 10 -80 13 -129 57 -384 90 -520 13 -55 26 -111 28 -125 13 -73 123
-412 183 -565 83 -215 218 -500 304 -645 18 -30 44 -75 58 -100 47 -84 194
-304 280 -420 352 -474 781 -881 1276 -1209 113 -75 344 -212 438 -260 15 -8
25 -19 21 -24 -3 -6 -1 -7 5 -3 7 4 60 -17 119 -47 204 -101 598 -257 763
-302 8 -3 49 -14 90 -25 41 -12 82 -23 90 -25 173 -42 280 -68 300 -71 14 -2
39 -7 55 -11 17 -4 35 -7 40 -8 6 0 28 -4 50 -8 22 -4 54 -9 70 -12 50 -6 109
-15 130 -20 11 -2 52 -7 90 -10 39 -4 80 -8 93 -10 162 -26 895 -26 1028 -1
11 2 48 7 84 11 36 4 72 8 80 10 8 1 42 6 75 10 131 15 399 70 580 119 357 97
654 208 969 364 144 70 421 226 443 248 8 8 20 14 28 14 7 0 15 4 17 8 2 4 21
19 43 32 22 13 77 51 123 83 46 32 87 55 94 51 7 -4 8 -3 4 4 -4 6 6 19 21 29
15 10 37 25 48 35 11 9 70 56 130 104 61 48 117 94 126 103 9 9 47 43 84 76
131 115 370 361 480 495 20 25 52 63 71 86 18 22 54 67 78 100 25 32 49 64 53
69 36 45 163 234 229 340 185 299 323 582 439 900 20 55 39 107 42 115 3 8 7
20 8 25 2 6 15 47 30 93 15 46 28 89 29 95 1 7 10 39 20 72 10 33 19 67 21 75
2 8 11 47 20 85 9 39 19 81 21 95 3 14 7 33 10 42 5 18 10 39 18 89 3 19 8 45
11 59 3 14 7 39 9 55 3 17 9 59 15 95 5 36 13 94 16 130 4 36 9 74 11 85 25
127 25 794 -1 1000 -2 17 -7 55 -10 85 -3 30 -8 64 -10 75 -2 11 -7 40 -10 65
-3 25 -7 55 -9 66 -2 12 -7 38 -10 58 -3 21 -13 72 -22 114 -16 75 -20 93 -28
130 -2 9 -9 40 -16 67 -50 223 -174 590 -264 787 -14 31 -26 59 -26 63 0 7
-146 299 -187 375 -142 259 -351 563 -559 810 -249 297 -592 616 -894 833 -14
9 -52 36 -85 60 -289 207 -739 445 -1101 582 -159 61 -438 150 -564 181 -8 2
-35 8 -60 15 -50 12 -45 11 -151 33 -42 9 -83 18 -90 20 -8 3 -32 8 -54 11
-54 8 -155 24 -180 29 -11 2 -49 7 -85 11 -36 4 -72 8 -80 10 -8 2 -51 6 -95
10 -44 4 -96 9 -115 11 -44 6 -643 11 -690 7z"/>
</g>
</svg>
